<?xml version="1.0" encoding="UTF-8"?>
<!-- Generator: visioncortex VTracer 0.6.12 -->
<svg version="1.1" xmlns="http://www.w3.org/2000/svg" width="620" height="692" viewBox="0 0 620 692" preserveAspectRatio="xMidYMid meet" role="img" aria-labelledby="title desc">
<title id="title">AXERA logo mark</title>
<desc id="desc">Left symbol only, with the right-side wordmark removed by cropping the vector artwork.</desc>
<path d="M0,0 L4,1 L14,11 L22,18 L52,48 L60,55 L75,70 L82,78 L94,89 L102,96 L110,104 L117,112 L124,119 L132,126 L162,156 L170,163 L183,176 L188,181 L200,193 L208,200 L220,212 L227,220 L235,228 L243,235 L254,245 L261,253 L272,264 L280,271 L310,301 L318,308 L328,318 L335,326 L343,333 L345,337 L329,353 L322,361 L311,372 L303,379 L273,409 L265,416 L256,425 L249,433 L237,444 L225,455 L211,470 L201,480 L193,487 L186,494 L184,494 L182,498 L162,518 L154,525 L147,532 L140,540 L132,547 L125,554 L117,561 L102,577 L90,589 L82,596 L76,601 L69,609 L52,626 L44,633 L32,646 L30,646 L29,649 L21,656 L14,663 L6,670 L1,674 L-9,664 L-17,657 L-27,648 L-42,632 L-58,617 L-85,590 L-93,583 L-106,570 L-108,565 L-101,557 L-93,550 L-62,519 L-54,512 L-10,468 L-2,461 L10,448 L18,441 L49,410 L57,403 L95,365 L103,358 L112,349 L119,341 L123,338 L121,334 L88,301 L80,294 L49,263 L41,256 L32,246 L21,235 L13,228 L-23,192 L-31,185 L-36,179 L-44,172 L-96,120 L-104,113 L-108,109 L-107,105 L-98,95 L-89,86 L-81,79 L-72,70 L-70,70 L-68,66 L-50,48 L-42,41 L-13,12 L-5,5 Z " fill="#B12A7D" transform="translate(266,9)"/>
<path d="M0,0 L4,2 L20,17 L28,24 L39,36 L47,44 L55,51 L85,81 L93,88 L97,92 L96,96 L82,121 L72,144 L67,160 L61,184 L58,205 L58,244 L61,265 L67,289 L72,305 L82,328 L96,353 L96,357 L83,370 L75,377 L59,394 L50,403 L42,410 L33,418 L26,426 L11,441 L3,448 L-1,447 L-7,438 L-22,409 L-32,388 L-39,370 L-50,336 L-56,313 L-62,283 L-65,257 L-65,192 L-61,161 L-55,132 L-48,107 L-36,71 L-24,44 L-13,22 L-4,7 L-1,1 Z " fill="#2AB3CB" transform="translate(91,121)"/>
<path d="M0,0 L41,0 L61,3 L77,8 L94,16 L104,24 L111,31 L118,42 L123,53 L127,69 L127,243 L55,243 L54,227 L46,234 L32,241 L23,244 L18,245 L2,246 L-18,244 L-32,240 L-48,232 L-60,221 L-67,211 L-74,195 L-77,182 L-77,155 L-73,140 L-67,129 L-58,118 L-46,109 L-32,102 L-16,98 L-9,97 L53,97 L51,81 L47,73 L41,68 L34,65 L29,64 L7,64 L-6,68 L-17,77 L-19,79 L-23,78 L-42,59 L-47,54 L-67,34 L-66,30 L-56,21 L-38,10 L-26,5 L-8,1 Z M10,148 L1,152 L-4,158 L-6,163 L-5,172 L1,180 L9,184 L15,185 L25,185 L35,183 L44,178 L50,171 L52,166 L53,160 L53,148 Z " fill="#4D378F" transform="translate(1761,73)"/>
<path d="M0,0 L89,0 L103,18 L115,34 L131,55 L136,61 L139,60 L153,41 L163,28 L169,20 L171,20 L173,16 L180,6 L184,0 L273,0 L271,5 L260,19 L258,19 L256,23 L248,35 L238,48 L225,64 L215,78 L206,90 L194,105 L185,117 L182,121 L184,125 L195,139 L209,157 L223,176 L237,194 L244,203 L252,214 L264,230 L272,240 L273,243 L184,243 L172,227 L162,214 L152,201 L143,189 L138,182 L135,183 L126,195 L113,211 L106,221 L97,233 L89,243 L0,243 L2,239 L14,223 L28,205 L35,196 L45,182 L56,168 L66,156 L74,144 L85,130 L91,123 L89,119 L80,107 L70,93 L70,91 L68,91 L55,74 L42,57 L33,45 L20,28 L12,18 L0,2 Z " fill="#4D378F" transform="translate(959,73)"/>
<path d="M0,0 L7,6 L23,21 L50,48 L58,55 L73,70 L80,78 L92,89 L100,96 L108,104 L115,112 L122,119 L130,126 L160,156 L168,163 L181,176 L186,181 L198,193 L206,200 L218,212 L225,220 L233,228 L241,235 L252,245 L259,253 L270,264 L278,271 L308,301 L316,308 L326,318 L333,326 L341,333 L343,336 L124,336 L107,292 L99,271 L92,252 L85,232 L62,171 L58,158 L55,150 L38,105 L27,76 L23,66 L16,45 L13,37 L0,3 Z " fill="#1A509F" transform="translate(268,9)"/>
<path d="M0,0 Z M-2,1 L0,1 L-2,5 L-15,18 L-17,18 L-19,22 L-22,23 L-23,26 L-25,26 L-25,28 L-27,28 L-27,30 L-35,37 L-67,69 L-75,76 L-108,109 L-110,109 L-112,113 L-117,118 L-152,153 L-155,158 L-175,178 L-183,185 L-190,192 L-197,200 L-205,207 L-212,214 L-220,221 L-235,237 L-247,249 L-255,256 L-261,261 L-268,269 L-285,286 L-293,293 L-305,306 L-307,306 L-308,309 L-316,316 L-323,323 L-331,330 L-336,334 L-346,324 L-354,317 L-364,308 L-379,292 L-395,277 L-422,250 L-430,243 L-443,230 L-445,225 L-435,221 L-390,198 L-374,190 L-329,167 L-320,163 L-270,138 L-268,138 L-267,135 L-259,131 L-253,130 L-253,128 L-203,103 L-184,93 L-177,89 L-167,85 L-142,72 L-133,67 L-124,64 L-87,45 L-68,35 L-28,15 L-13,7 Z " fill="#F5D00B" transform="translate(603,349)"/>
<path d="M0,0 L23,0 L40,3 L55,8 L71,17 L81,24 L87,29 L96,40 L104,53 L112,69 L117,84 L120,98 L122,120 L121,142 L120,148 L5,148 L5,97 L6,96 L52,96 L44,80 L37,72 L29,67 L20,64 L3,64 L-10,69 L-17,75 L-24,85 L-29,98 L-31,109 L-31,132 L-27,149 L-21,161 L-16,167 L-7,173 L5,178 L10,179 L31,179 L45,175 L55,169 L65,160 L69,156 L72,156 L80,166 L92,180 L99,190 L109,202 L107,206 L98,217 L91,224 L81,231 L69,237 L50,243 L31,246 L6,246 L-12,243 L-32,237 L-46,230 L-60,220 L-75,205 L-84,192 L-92,175 L-98,156 L-101,137 L-101,109 L-98,90 L-93,73 L-82,50 L-73,38 L-64,28 L-53,20 L-39,11 L-24,5 L-8,1 Z " fill="#4D378F" transform="translate(1332,72)"/>
<path d="M0,0 L62,0 L67,11 L79,41 L84,55 L99,92 L112,124 L123,153 L139,192 L151,222 L156,236 L158,240 L158,243 L78,243 L64,203 L54,175 L44,147 L38,127 L33,115 L22,144 L7,184 L1,202 L-13,239 L-15,243 L-96,243 L-95,238 L-81,203 L-66,166 L-60,150 L-37,93 L-30,76 L-24,59 L-12,30 Z " fill="#4D378F" transform="translate(769,73)"/>
<path d="M0,0 L77,0 L93,4 L105,9 L117,16 L130,27 L138,37 L146,51 L151,63 L154,78 L154,100 L151,115 L146,127 L139,139 L131,149 L122,158 L112,165 L106,167 L113,175 L127,190 L137,200 L145,207 L154,216 L161,224 L173,236 L179,241 L179,243 L94,243 L84,239 L74,231 L48,205 L44,200 L36,193 L11,168 L5,157 L4,153 L4,138 L8,129 L12,123 L19,117 L26,114 L31,113 L69,112 L79,107 L82,106 L84,101 L87,95 L87,84 L83,75 L78,70 L70,66 L0,65 Z " fill="#4D378F" transform="translate(1491,73)"/>
<path d="M0,0 L41,0 L39,7 L203,7 L203,30 L30,30 L30,33 L170,33 L179,36 L189,45 L193,53 L193,69 L188,79 L180,86 L169,90 L161,91 L161,93 L172,95 L207,105 L207,135 L197,133 L133,116 L112,111 L104,109 L94,110 L75,115 L53,120 L24,128 L-2,135 L-4,135 L-3,128 L7,102 L30,95 L41,93 L41,91 L33,90 L11,84 L9,93 L-5,133 L-6,135 L-49,135 L-48,128 L-31,82 L-19,50 L-15,37 L-13,31 L-48,30 L-48,8 L-47,7 L-3,6 Z M21,55 L19,61 L47,62 L100,77 L127,70 L151,63 L153,62 L153,57 L151,55 Z " fill="#4D378F" transform="translate(722,484)"/>
<path d="M0,0 L2,0 L17,40 L26,66 L31,79 L47,121 L59,153 L58,157 L44,148 L28,138 L12,128 L-13,112 L-24,105 L-11,125 L-1,141 L9,156 L24,179 L34,195 L59,232 L62,241 L65,242 L70,250 L70,253 L73,254 L81,266 L84,273 L102,300 L113,317 L117,325 L113,326 L88,301 L80,294 L49,263 L41,256 L32,246 L21,235 L13,228 L-23,192 L-31,185 L-36,179 L-44,172 L-96,120 L-104,113 L-108,109 L-107,105 L-98,95 L-89,86 L-81,79 L-72,70 L-70,70 L-68,66 L-50,48 L-42,41 L-13,12 L-5,5 Z " fill="#BD5495" transform="translate(266,9)"/>
<path d="M0,0 L229,0 L238,3 L247,11 L250,18 L250,89 L0,89 Z M40,23 L40,32 L212,32 L211,24 L210,23 Z M40,54 L40,67 L212,67 L212,54 Z " fill="#4D378F" transform="translate(1638,530)"/>
<path d="M0,0 L7,6 L23,21 L50,48 L58,55 L73,70 L80,78 L92,89 L100,96 L108,104 L115,112 L122,119 L130,126 L160,156 L168,163 L181,176 L186,181 L198,193 L206,200 L218,212 L225,220 L233,228 L241,235 L252,245 L259,253 L270,264 L278,271 L308,301 L316,308 L326,318 L333,326 L341,333 L343,336 L339,335 L320,323 L296,308 L274,294 L248,278 L231,267 L214,256 L197,246 L180,235 L166,226 L152,217 L141,211 L115,194 L107,190 L103,186 L82,173 L78,170 L73,168 L70,165 L61,160 L57,157 L51,139 L35,97 L27,76 L23,66 L16,45 L13,37 L0,3 Z " fill="#16B2E2" transform="translate(268,9)"/>
<path d="M0,0 L256,0 L256,22 L214,22 L215,99 L217,104 L220,106 L256,107 L256,129 L189,129 L181,125 L175,116 L174,112 L174,22 L85,22 L85,64 L80,72 L75,77 L43,109 L38,114 L23,129 L20,129 L20,89 L29,80 L34,75 L42,66 L44,62 L45,22 L0,22 Z " fill="#4D378F" transform="translate(1316,490)"/>
<path d="M0,0 Z M-2,1 L0,1 L-2,5 L-15,18 L-17,18 L-19,22 L-22,23 L-23,26 L-25,26 L-25,28 L-27,28 L-27,30 L-35,37 L-67,69 L-75,76 L-108,109 L-110,109 L-112,113 L-117,118 L-152,153 L-155,158 L-175,178 L-183,185 L-190,192 L-197,200 L-205,207 L-212,214 L-214,214 L-212,210 L-209,207 L-209,198 L-212,193 L-215,185 L-215,177 L-217,177 L-222,167 L-224,159 L-233,142 L-232,147 L-236,143 L-238,138 L-240,138 L-241,136 L-241,125 L-249,129 L-253,128 L-203,103 L-184,93 L-177,89 L-167,85 L-142,72 L-133,67 L-124,64 L-87,45 L-68,35 L-28,15 L-13,7 Z " fill="#DB8147" transform="translate(603,349)"/>
<path d="M0,0 L40,0 L40,10 L128,10 L128,32 L83,32 L83,53 L128,53 L128,76 L97,77 L127,87 L128,88 L128,119 L119,117 L88,106 L83,101 L82,98 L81,79 L77,83 L45,98 L17,111 L-1,119 L-3,119 L-3,90 L11,83 L25,77 L-3,76 L-3,58 L-10,61 L-13,61 L-13,22 L-2,14 L0,14 Z M37,32 L18,44 L7,50 L4,53 L43,53 L43,32 Z " fill="#4D378F" transform="translate(1641,408)"/>
<path d="M0,0 L2,0 L-1,10 L-9,32 L-24,71 L-29,86 L-33,95 L-40,115 L-47,133 L-47,136 L-54,139 L-57,142 L-109,168 L-116,171 L-142,184 L-161,194 L-177,202 L-205,216 L-224,226 L-228,228 L-231,227 L-225,220 L-217,213 L-186,182 L-178,175 L-134,131 L-126,124 L-114,111 L-106,104 L-75,73 L-67,66 L-29,28 L-21,21 L-12,12 L-5,4 Z " fill="#BD5494" transform="translate(390,346)"/>
<path d="M0,0 L2,0 L3,11 L5,11 L10,21 L8,15 L10,15 L21,36 L23,44 L26,50 L26,52 L28,52 L30,62 L34,72 L35,73 L35,82 L30,87 L27,92 L18,101 L11,109 L-4,124 L-12,131 L-15,134 L-17,133 L-7,123 L-9,117 L-15,106 L-27,84 L-36,65 L-38,64 L-53,104 L-68,143 L-71,140 L-75,131 L-77,122 L-78,120 L-81,120 L-87,110 L-88,97 L-95,85 L-98,85 L-102,75 L-104,74 L-108,60 L-108,53 L-86,42 L-77,38 L-27,13 L-25,13 L-24,10 L-16,6 L-4,2 Z " fill="#F1B601" transform="translate(360,474)"/>
<path d="M0,0 L94,0 L103,2 L111,8 L116,17 L116,109 L1,109 L0,108 Z M40,22 L40,86 L77,86 L77,25 L73,22 Z " fill="#4D378F" transform="translate(1772,418)"/>
<path d="M0,0 L44,0 L48,16 L48,19 L89,19 L86,8 L86,0 L129,0 L133,19 L171,18 L176,0 L220,0 L218,11 L216,19 L235,19 L235,49 L196,49 L195,48 L195,42 L24,42 L24,48 L23,49 L-16,49 L-16,19 L4,19 L0,4 Z " fill="#4D378F" transform="translate(690,440)"/>
<path d="M0,0 L7,6 L23,21 L50,48 L58,55 L73,70 L80,78 L92,89 L100,96 L108,104 L115,112 L122,119 L131,130 L144,142 L160,158 L160,160 L147,160 L80,157 L57,157 L51,139 L35,97 L27,76 L23,66 L16,45 L13,37 L0,3 Z " fill="#51BAE6" transform="translate(268,9)"/>
<path d="M0,0 L40,0 L41,123 L46,128 L120,129 L120,151 L15,151 L7,147 L1,139 L0,136 Z " fill="#4D378F" transform="translate(1068,468)"/>
<path d="M0,0 L40,0 L40,11 L138,11 L138,0 L177,0 L178,1 L178,11 L215,11 L215,33 L178,33 L178,48 L177,49 L138,49 L138,33 L40,33 L40,49 L0,49 L0,33 L-36,33 L-36,11 L0,11 Z " fill="#4D378F" transform="translate(1032,408)"/>
<path d="M0,0 L4,2 L19,11 L44,27 L61,38 L70,43 L85,53 L90,69 L107,114 L118,143 L125,164 L131,179 L150,229 L150,231 L369,231 L367,233 L148,232 L138,222 L138,220 L140,219 L131,204 L115,180 L105,165 L102,158 L96,149 L94,148 L90,140 L85,134 L80,124 L51,81 L42,66 L32,51 L13,22 L3,6 L0,2 Z " fill="#5A2E83" transform="translate(242,114)"/>
<path d="M0,0 L3,1 L4,8 L7,19 L10,23 L12,31 L14,31 L15,29 L23,43 L24,56 L30,66 L32,64 L35,70 L37,79 L42,89 L41,94 L24,139 L21,147 L20,144 L17,143 L1,113 L-2,108 L-6,98 L-16,80 L-30,53 L-40,35 L-43,25 L-47,24 L-31,16 L-3,2 Z " fill="#F1B701" transform="translate(250,528)"/>
<path d="M0,0 L244,0 L245,1 L245,23 L-1,23 L-1,1 Z " fill="#4D378F" transform="translate(1321,419)"/>
<path d="M0,0 L16,0 L16,22 L-25,24 L-231,32 L-237,32 L-238,31 L-238,10 L-232,9 Z " fill="#4D378F" transform="translate(910,408)"/>
<path d="M0,0 L40,0 L40,97 L36,105 L17,124 L11,131 L6,136 L-4,146 L-10,151 L-13,151 L-13,111 L-3,100 L-1,96 Z " fill="#4D378F" transform="translate(1012,468)"/>
<path d="M0,0 L40,0 L41,95 L45,102 L51,109 L52,111 L52,151 L46,147 L41,142 L30,131 L22,124 L10,111 L3,103 L0,96 Z " fill="#4D378F" transform="translate(1195,468)"/>
<path d="M0,0 L2,3 L16,40 L25,66 L30,79 L46,121 L58,153 L57,157 L43,148 L27,138 L11,128 L-14,112 L-23,106 L-27,105 L-28,102 L-18,66 L-15,52 L-1,2 Z " fill="#915F9B" transform="translate(267,9)"/>
<path d="M0,0 L1,2 L-4,15 L-12,38 L-31,88 L-49,135 L-52,132 L-56,123 L-58,114 L-59,112 L-62,112 L-68,102 L-69,89 L-76,77 L-79,77 L-83,67 L-85,66 L-89,52 L-89,45 L-67,34 L-58,30 L-8,5 L-6,5 L-5,2 Z " fill="#E18F3C" transform="translate(341,482)"/>
<path d="M0,0 L4,5 L13,24 L25,46 L32,59 L30,63 L22,71 L16,79 L-4,99 L-12,106 L-24,119 L-26,119 L-27,122 L-35,129 L-42,136 L-48,141 L-52,141 L-49,131 L-32,86 L-27,70 L-10,26 Z " fill="#F7D60F" transform="translate(322,536)"/>
<path d="M0,0 L4,2 L38,36 L46,43 L59,56 L61,59 L61,62 L65,64 L77,76 L77,77 L57,77 L-7,74 L-15,70 L-19,66 L-40,53 L-44,50 L-49,48 L-52,45 L-61,40 L-64,38 L-64,36 L-42,36 L25,39 L38,40 L31,32 L14,15 L6,8 Z " fill="#29B4E3" transform="translate(390,129)"/>
<path d="M0,0 L40,0 L40,80 L0,80 Z " fill="#4D378F" transform="translate(1128,471)"/>
<path d="M0,0 L1,2 L-15,59 L-18,73 L-21,84 L-30,83 L-64,82 L-82,81 L-76,74 L-72,70 L-70,70 L-68,66 L-50,48 L-42,41 L-13,12 L-5,5 Z " fill="#CA6165" transform="translate(266,9)"/>
<path d="M0,0 L19,0 L53,1 L61,2 L60,10 L57,21 L13,24 L-3,25 L-24,25 L-20,19 L-6,5 Z " fill="#B72877" transform="translate(183,90)"/>
<path d="M0,0 L3,3 L16,27 L19,33 L-9,61 L-14,66 L-25,78 L-29,78 L-26,68 L-9,23 L-4,7 L-2,2 L0,2 Z " fill="#FAE61A" transform="translate(299,599)"/>
<path d="M0,0 L22,0 L89,3 L102,4 L103,2 L115,15 L115,17 L62,15 L38,14 L38,12 L17,12 L6,6 L0,2 Z " fill="#36B6E4" transform="translate(326,165)"/>
<path d="M0,0 L1,2 L-13,52 L-14,55 L-36,55 L-53,54 L-53,51 L-40,39 L-13,12 L-5,5 Z " fill="#DA804F" transform="translate(266,9)"/>
<path d="M0,0 L3,1 L4,8 L7,19 L10,23 L12,31 L14,31 L15,29 L23,43 L24,56 L30,66 L32,64 L35,70 L37,79 L42,89 L41,94 L26,134 L25,134 L26,126 L37,97 L36,92 L24,70 L16,54 L8,38 L-7,10 L-7,6 L-9,5 Z " fill="#EDA60F" transform="translate(250,528)"/>
<path d="M0,0 L7,6 L22,22 L47,47 L47,48 L17,48 L13,37 L0,3 Z " fill="#71C1E8" transform="translate(268,9)"/>
<path d="M0,0 L32,1 L77,3 L88,3 L96,11 L96,12 L76,12 L12,9 L4,5 Z " fill="#1FB3E3" transform="translate(371,194)"/>
<path d="M0,0 L3,4 L12,21 L12,25 L0,37 L-5,42 L-16,54 L-20,54 L-17,44 L-1,2 Z " fill="#FBEC1F" transform="translate(290,623)"/>
<path d="M0,0 L4,2 L38,36 L46,43 L59,56 L58,58 L56,57 L42,57 L-26,54 L-38,53 L-49,48 L-50,46 L-47,47 L-26,48 L-26,50 L-2,50 L44,52 L51,53 L42,42 L29,30 L14,15 L6,8 Z " fill="#2FB5E4" transform="translate(390,129)"/>
<path d="M0,0 L2,0 L3,11 L5,11 L10,21 L8,15 L10,15 L21,36 L23,44 L26,50 L26,52 L28,52 L30,62 L34,72 L35,73 L35,82 L32,78 L30,70 L28,70 L22,59 L18,49 L18,47 L16,47 L5,25 L-3,11 L-4,4 L-6,3 Z " fill="#EDA707" transform="translate(360,474)"/>
<path d="M0,0 L41,2 L38,12 L-9,12 L-9,9 Z " fill="#CF6A5F" transform="translate(211,62)"/>
<path d="M0,0 L56,0 L55,7 L53,11 L45,10 L11,9 L-7,8 L-1,1 Z " fill="#C34D6D" transform="translate(191,82)"/>
<path d="M0,0 L4,0 L2,4 L-10,16 L-17,24 L-28,35 L-36,42 L-66,72 L-74,79 L-83,88 L-90,96 L-102,107 L-114,118 L-128,133 L-138,143 L-146,150 L-153,157 L-155,156 L-118,119 L-112,112 L-104,105 L-71,72 L-63,65 L-31,33 L-29,33 L-29,31 L-27,31 L-27,29 L-20,23 L-15,18 L-3,6 L-2,2 L0,2 Z " fill="#C1556B" transform="translate(605,346)"/>
<path d="M0,0 L3,1 L4,8 L7,19 L10,23 L12,31 L14,31 L15,29 L23,43 L24,56 L30,66 L32,64 L35,70 L37,79 L42,89 L41,94 L26,134 L25,134 L26,126 L38,95 L38,87 L30,72 L27,69 L19,51 L17,48 L15,39 L6,23 L0,11 L-3,9 L-3,7 L-7,8 L-7,6 L-9,5 Z " fill="#EBA319" transform="translate(250,528)"/>
<path d="M0,0 L1,2 L-8,33 L-20,33 L-32,32 L-26,25 L-13,12 L-5,5 Z " fill="#F2BE00" transform="translate(266,9)"/>
<path d="M0,0 L4,5 L13,24 L25,46 L32,59 L30,63 L27,65 L19,49 L7,27 L-2,10 L-3,8 Z " fill="#F4CA06" transform="translate(322,536)"/>
<path d="M0,0 L19,0 L53,1 L61,2 L60,10 L58,14 L58,9 L54,8 L-5,6 Z " fill="#BD3C72" transform="translate(183,90)"/>
<path d="M0,0 L13,0 L25,1 L22,12 L6,12 L-10,11 L-4,4 Z " fill="#E49636" transform="translate(233,41)"/>
<path d="M0,0 L4,0 L2,4 L-10,16 L-17,24 L-28,35 L-36,42 L-66,72 L-69,73 L-67,69 L-31,33 L-29,33 L-29,31 L-27,31 L-27,29 L-20,23 L-15,18 L-3,6 L-2,2 L0,2 Z " fill="#BF4872" transform="translate(605,346)"/>
<path d="M0,0 L5,3 L20,17 L27,25 L38,36 L46,43 L76,73 L84,80 L94,90 L94,92 L91,91 L91,89 L87,87 L52,52 L49,50 L49,48 L45,46 L39,39 L31,32 L2,3 L0,2 Z " fill="#0E8FCB" transform="translate(500,237)"/>
<path d="M0,0 L3,1 L5,4 L7,11 L16,30 L25,46 L29,56 L41,79 L43,86 L40,83 L27,58 L19,42 L5,15 L-1,4 Z " fill="#EDA707" transform="translate(244,534)"/>
<path d="M0,0 L41,2 L39,7 L-3,6 L-3,3 Z " fill="#D47558" transform="translate(211,62)"/>
<path d="M0,0 L3,4 L13,22 L15,20 L18,26 L20,35 L25,45 L24,50 L9,90 L8,90 L9,82 L21,51 L21,43 L13,28 L10,25 L2,7 L0,4 Z " fill="#ECB021" transform="translate(267,572)"/>
<path d="M0,0 L43,0 L53,2 L52,4 L0,4 L-2,2 Z " fill="#C75768" transform="translate(194,79)"/>
<path d="M0,0 L18,1 L16,10 L4,10 L-8,9 L-2,2 Z " fill="#EFAC00" transform="translate(242,32)"/>
<path d="M0,0 L20,0 L58,2 L58,5 L16,4 L-2,3 Z " fill="#C1446F" transform="translate(186,87)"/>
<path d="M0,0 L0,3 L-22,25 L-30,32 L-42,45 L-44,45 L-45,48 L-53,55 L-60,62 L-62,61 L-54,53 L-49,48 L-7,6 Z " fill="#D7A55A" transform="translate(340,610)"/>
<path d="M0,0 L65,2 L64,5 L51,5 L-1,3 Z " fill="#BA2D74" transform="translate(177,95)"/>
<path d="M0,0 L2,0 L13,21 L15,29 L18,35 L18,37 L20,37 L20,44 L17,40 L6,19 L2,8 L1,3 Z " fill="#EDA510" transform="translate(368,489)"/>
<path d="M0,0 L16,0 L52,2 L62,3 L62,4 L35,4 L-2,3 Z " fill="#BC3473" transform="translate(180,93)"/>
<path d="M0,0 L17,0 L33,1 L32,5 L15,5 L-3,4 Z " fill="#E08E41" transform="translate(222,52)"/>
<path d="M0,0 L4,2 L34,32 L42,39 L49,45 L50,40 L51,42 L54,43 L48,48 L38,38 L30,31 L20,22 L5,6 Z " fill="#D9A360" transform="translate(219,635)"/>
<path d="M0,0 L4,2 L38,36 L46,43 L59,56 L58,58 L45,46 L39,39 L31,32 L14,15 L6,8 Z " fill="#309AD3" transform="translate(390,129)"/>
<path d="M0,0 L35,1 L44,2 L44,5 L0,3 Z " fill="#D2705B" transform="translate(206,67)"/>
<path d="M0,0 L19,0 L36,1 L35,4 L13,4 L-1,3 Z " fill="#DD8749" transform="translate(218,56)"/>
<path d="M0,0 L3,1 L4,4 L12,11 L43,42 L42,44 L23,25 L15,18 L2,5 Z " fill="#DBAC6A" transform="translate(158,574)"/>
<path d="M0,0 L1,2 L-3,16 L-15,16 L-13,12 L-5,5 Z " fill="#F5D10D" transform="translate(266,9)"/>
<path d="M0,0 L2,0 L0,4 L-12,16 L-19,24 L-29,33 L-30,30 Z " fill="#C4556C" transform="translate(534,418)"/>
<path d="M0,0 L13,0 L25,1 L24,5 L12,5 L-3,4 Z " fill="#EBA319" transform="translate(233,41)"/>
<path d="M0,0 L4,0 L2,4 L-10,16 L-17,24 L-28,35 L-30,34 L-29,31 L-27,31 L-27,29 L-20,23 L-15,18 L-3,6 L-2,2 L0,2 Z " fill="#BB3976" transform="translate(605,346)"/>
<path d="M0,0 L7,6 L24,23 L32,30 L42,40 L42,42 L39,41 L39,39 L35,37 L0,2 Z " fill="#0E88C6" transform="translate(552,287)"/>
<path d="M0,0 L41,2 L40,5 L11,4 L0,3 Z " fill="#D67A54" transform="translate(211,62)"/>
<path d="M0,0 L2,1 L-5,9 L-20,24 L-28,31 L-31,34 L-33,33 Z " fill="#CF865C" transform="translate(376,574)"/>
<path d="M0,0 L16,0 L28,1 L27,4 L14,4 L-2,3 Z " fill="#E79C2B" transform="translate(229,45)"/>
<path d="M0,0 L5,3 L15,13 L23,20 L35,32 L34,34 L22,23 L2,3 L0,2 Z " fill="#1291CD" transform="translate(451,189)"/>
<path d="M0,0 L18,1 L17,5 L-1,5 L-3,3 Z " fill="#F1B700" transform="translate(242,32)"/>
<path d="M0,0 L4,4 L9,12 L11,17 L7,15 L-1,7 L-1,5 L1,4 Z " fill="#961F83" transform="translate(381,329)"/>
<path d="M0,0 L1,4 L-1,11 L-2,7 L-6,6 L-1,6 L-1,3 L-37,2 L-37,1 Z " fill="#C1536F" transform="translate(246,82)"/>
<path d="M0,0 L4,2 L17,14 L23,20 L22,22 L10,11 L0,1 Z " fill="#409DD6" transform="translate(353,93)"/>
<path d="M0,0 L0,3 L-17,20 L-20,19 L-7,6 Z " fill="#D7A258" transform="translate(340,610)"/>
<path d="M0,0 L3,1 L4,6 L6,10 L5,13 L-3,6 L-4,3 Z " fill="#F8E11D" transform="translate(164,572)"/>
<path d="M0,0 L5,3 L14,12 L16,13 L17,8 L18,10 L21,11 L15,16 L5,6 L0,2 Z " fill="#E1AE4B" transform="translate(252,667)"/>
<path d="M0,0 L8,6 L13,12 L9,11 L-1,4 Z " fill="#119ED5" transform="translate(598,333)"/>
<path d="M0,0 L2,1 L-5,9 L-13,17 L-15,15 Z " fill="#BD4173" transform="translate(574,379)"/>
<path d="M0,0 L4,2 L21,19 L20,21 L7,9 L0,1 Z " fill="#2697D1" transform="translate(428,166)"/>
<path d="M0,0 L5,3 L19,16 L19,18 L15,16 L2,3 L0,2 Z " fill="#0F8BC9" transform="translate(500,237)"/>
<path d="M0,0 L12,1 L11,5 L-2,4 Z " fill="#F4CA07" transform="translate(250,24)"/>
<path d="M0,0 L4,2 L13,11 L15,15 L11,13 L0,2 Z " fill="#DDAB5F" transform="translate(204,620)"/>
<path d="M0,0 L14,1 L14,4 L4,4 L-1,3 Z " fill="#F4C402" transform="translate(247,27)"/>
<path d="M0,0 L0,3 L-7,10 L-15,17 L-16,14 L-11,9 L-6,6 Z " fill="#BE4A72" transform="translate(520,434)"/>
<path d="M0,0 L1,3 L-12,15 L-15,16 L-14,13 L-6,6 Z " fill="#C75F67" transform="translate(503,449)"/>
<path d="M0,0 L4,1 L14,11 L13,13 L0,1 Z " fill="#D59964" transform="translate(238,655)"/>
<path d="M0,0 L4,0 L2,4 L-7,13 L-7,10 L-2,4 L-2,2 L0,2 Z " fill="#BA3277" transform="translate(605,346)"/>
<path d="M0,0 L2,0 L7,10 L8,17 L5,14 L2,7 Z " fill="#ECA31A" transform="translate(372,486)"/>
<path d="M0,0 L2,0 L3,12 L1,14 L-1,7 L-2,1 Z " fill="#EDA60E" transform="translate(360,474)"/>
<path d="M0,0 L4,2 L13,11 L12,14 L0,1 Z " fill="#3BA3D8" transform="translate(390,129)"/>
<path d="M0,0 L1,2 L-1,9 L-7,8 L-1,1 Z " fill="#F9E115" transform="translate(266,9)"/>
<path d="M0,0 L6,1 L6,4 L-3,5 L-1,1 Z " fill="#F8DA10" transform="translate(258,17)"/>
<path d="M0,0 L7,6 L7,8 L2,8 L0,3 Z " fill="#79C1E7" transform="translate(269,12)"/>
<path d="M0,0 L2,1 L-6,10 L-9,9 Z " fill="#C4596A" transform="translate(487,465)"/>
<path d="M0,0 L2,0 L0,4 L-8,12 L-10,11 L-2,3 Z " fill="#D9B25E" transform="translate(288,660)"/>
<path d="M0,0 L2,1 L-6,9 L-8,9 L-6,5 Z " fill="#D4804E" transform="translate(397,554)"/>
<path d="M0,0 L7,4 L4,7 L2,7 L0,3 Z " fill="#1B6FB7" transform="translate(327,167)"/>
<path d="M0,0 L5,1 L6,6 L4,5 L4,3 L0,4 L0,2 L-2,1 Z " fill="#ECA414" transform="translate(243,532)"/>
<path d="M0,0 L7,6 L9,9 L5,8 L3,6 L0,2 Z " fill="#107ABC" transform="translate(602,336)"/>
<path d="M0,0 L0,3 L-7,10 L-8,7 Z " fill="#D49B5B" transform="translate(340,610)"/>
<path d="M0,0 L3,1 L0,2 L-1,5 L-6,8 L-4,4 Z " fill="#D4A25D" transform="translate(296,653)"/>
<path d="M0,0 L4,1 L8,5 L8,7 L5,6 L5,4 L1,2 Z " fill="#0E96D0" transform="translate(544,281)"/>
<path d="M0,0 L2,1 L-2,6 L-5,5 Z " fill="#D28455" transform="translate(376,574)"/>
<path d="M0,0 L3,1 L2,5 L0,5 L0,3 L-3,2 Z " fill="#E79C2B" transform="translate(250,528)"/>
<path d="M0,0 L1,3 L-2,6 L-5,5 Z " fill="#DAA655" transform="translate(331,618)"/>
<path d="M0,0 L1,3 L-2,6 L-5,5 Z " fill="#C75D69" transform="translate(503,449)"/>
<path d="M0,0 L1,2 L0,6 L-4,5 Z " fill="#F7E521" transform="translate(266,9)"/>
<path d="M0,0 L4,2 L5,6 L0,2 Z " fill="#E0B35B" transform="translate(204,620)"/>
<path d="M0,0 L2,3 L2,5 L0,5 L-1,8 L-1,2 Z " fill="#695B93" transform="translate(267,9)"/>
<path d="M0,0 L5,5 L1,4 Z " fill="#E0B766" transform="translate(165,581)"/>
<path d="M0,0 L1,2 L4,3 L0,5 Z " fill="#E7C847" transform="translate(269,675)"/>
<path d="M0,0 L2,1 L3,5 L-1,4 Z " fill="#13A7DB" transform="translate(598,333)"/>
<path d="M0,0 L4,4 L1,4 Z " fill="#EFCC3B" transform="translate(201,616)"/>
<path d="M0,0 L3,0 L3,2 L-2,3 Z " fill="#B3508A" transform="translate(161,571)"/>
<path d="M0,0 L4,2 L2,5 Z " fill="#663A89" transform="translate(242,114)"/>
<path d="M0,0 L4,1 L3,4 Z " fill="#D29469" transform="translate(238,655)"/>
<path d="M0,0 L3,1 L-1,4 Z " fill="#CE7F5B" transform="translate(370,580)"/>
<path d="M0,0 L2,0 L1,3 L-2,2 Z " fill="#C4566C" transform="translate(509,443)"/>
<path d="M0,0 L2,0 L1,3 L-2,1 Z " fill="#EABA34" transform="translate(197,555)"/>
<path d="M0,0 L2,0 L1,3 L-1,3 Z " fill="#CC6662" transform="translate(489,462)"/>
<path d="M0,0 L2,1 L2,3 L-1,2 Z " fill="#F7D610" transform="translate(217,629)"/>
</svg>
