<?xml version="1.0" standalone="no"?><!DOCTYPE svg PUBLIC "-//W3C//DTD SVG 1.1//EN" "http://www.w3.org/Graphics/SVG/1.1/DTD/svg11.dtd"><svg t="1784105607001" class="icon" viewBox="0 0 1024 1024" version="1.1" xmlns="http://www.w3.org/2000/svg" p-id="4416" xmlns:xlink="http://www.w3.org/1999/xlink" width="200" height="200"><path d="M666.2656 785.5104a299.6736 299.6736 0 0 1-135.9872 29.184c-19.2512-1.3312-39.0144-0.4608-57.7536-4.4032-133.12-27.7504-212.1216-111.2064-242.6368-241.7664-25.6-109.824 26.4704-237.056 123.3408-305.5616a304.4864 304.4864 0 0 1 374.6816 18.3296c21.3504 18.5344 20.9408 26.7776-3.8912 41.6768-34.9184 20.9408-70.4 40.96-105.5232 61.44-50.688 29.7472-101.5296 59.136-151.7568 89.6-45.2608 27.4944-48.384 78.08-6.7584 110.7456 27.7504 21.8112 56.6784 14.2336 84.1728-1.5872q183.1936-105.4208 365.9776-211.4048c25.6-14.7456 28.3136-26.4192 15.36-52.8384a421.0688 421.0688 0 0 0-172.6976-183.9616c-84.1216-48.4864-173.312-71.68-270.6432-60.0064-67.9424 8.4992-129.8944 33.4848-188.672 68.096-198.656 116.992-246.272 366.6944-171.776 534.0672 71.68 161.2288 196.3008 258.6112 376.9344 273.3056 105.2672 8.5504 200.96-19.2 286.3104-81.664 11.1104-8.1408 16.5376-17.6128 9.728-30.72-38.6048-74.8032-62.0544-83.2-128.4096-52.5312z" fill="#59ADF8" p-id="4417"></path><path d="M920.0128 530.176c-2.2016-3.584-13.9264-5.12-18.5856-2.7648-29.5424 15.36-58.8288 31.6928-87.04 49.4592-5.12 3.2768-9.3184 17.2032-6.656 22.528 15.0016 29.7472 31.744 58.6752 49.3056 87.04 3.1232 5.12 15.36 10.24 19.2512 8.0384a619.52 619.52 0 0 0 69.2736-47.0528c7.168-5.7344 8.4992-18.6368 10.24-23.5008-1.4848-39.3216-18.8416-66.5088-35.7888-93.7472z" fill="#59ADF8" p-id="4418"></path></svg>