<?xml version="1.0" encoding="utf-8"?>
<!-- Generator: Adobe Illustrator 16.0.0, SVG Export Plug-In . SVG Version: 6.00 Build 0)  -->
<!DOCTYPE svg PUBLIC "-//W3C//DTD SVG 1.1//EN" "http://www.w3.org/Graphics/SVG/1.1/DTD/svg11.dtd" [
	<!ENTITY ns_extend "http://ns.adobe.com/Extensibility/1.0/">
	<!ENTITY ns_ai "http://ns.adobe.com/AdobeIllustrator/10.0/">
	<!ENTITY ns_graphs "http://ns.adobe.com/Graphs/1.0/">
	<!ENTITY ns_vars "http://ns.adobe.com/Variables/1.0/">
	<!ENTITY ns_imrep "http://ns.adobe.com/ImageReplacement/1.0/">
	<!ENTITY ns_sfw "http://ns.adobe.com/SaveForWeb/1.0/">
	<!ENTITY ns_custom "http://ns.adobe.com/GenericCustomNamespace/1.0/">
	<!ENTITY ns_adobe_xpath "http://ns.adobe.com/XPath/1.0/">
]>
<svg version="1.1" id="图层_1" xmlns:x="&ns_extend;" xmlns:i="&ns_ai;" xmlns:graph="&ns_graphs;"
	 xmlns="http://www.w3.org/2000/svg" xmlns:xlink="http://www.w3.org/1999/xlink" x="0px" y="0px" width="150px" height="150px"
	 viewBox="134 192 150 150" enable-background="new 134 192 150 150" xml:space="preserve">
<metadata>
	<sfw  xmlns="&ns_sfw;">
		<slices></slices>
		<sliceSourceBounds  x="13.541" y="194.662" width="426.5" height="205.136" bottomLeftOrigin="true"></sliceSourceBounds>
	</sfw>
</metadata>
<g>
	<g>
		<g>
			<path id="SVGID_1_" fill="#C5252C" d="M281.665,307.87c0,17.684-14.468,32.151-32.148,32.151h-80.38
				c-17.683,0-32.15-14.469-32.15-32.151v-80.377c0-17.683,14.468-32.151,32.15-32.151h80.38c17.681,0,32.148,14.469,32.148,32.151
				V307.87z"/>
		</g>
		<g>
			<defs>
				<path id="SVGID_2_" d="M281.665,307.87c0,17.684-14.468,32.151-32.148,32.151h-80.38c-17.683,0-32.15-14.469-32.15-32.151
					v-80.377c0-17.683,14.468-32.151,32.15-32.151h80.38c17.681,0,32.148,14.469,32.148,32.151V307.87z"/>
			</defs>
			<clipPath id="SVGID_3_">
				<use xlink:href="#SVGID_2_"  overflow="visible"/>
			</clipPath>
			<g clip-path="url(#SVGID_3_)">
				<g>
					<path fill="#872427" d="M257.02,374.665l-0.929-0.928C256.28,374.131,256.593,374.469,257.02,374.665z"/>
					
						<linearGradient id="SVGID_4_" gradientUnits="userSpaceOnUse" x1="221.7434" y1="277.6038" x2="311.176" y2="122.7019" gradientTransform="matrix(1 0 0 -1 -8.3599 496.6392)">
						<stop  offset="0.1" style="stop-color:#872427"/>
						<stop  offset="0.9152" style="stop-color:#C5252C"/>
					</linearGradient>
					<path fill="url(#SVGID_4_)" d="M273.627,217.203l-5.544,4.793c-8.793,7.598-19.007,7.956-28.711,7.673c-0.018,0-0.04,0-0.057,0
						c-1.044,0-1.907,0.827-1.938,1.876c-0.016,0.552,0.203,1.057,0.566,1.418c0.337,0.339,6.266,5.513,6.266,5.513
						c-1.178,0.008-2.391-0.01-3.634-0.049c0,0-7.109-7.628-7.215-7.879c-0.282-0.671-0.933-1.155-1.71-1.19
						c-11.328-0.471-22.479-0.483-34.414,4.562c-8.662,3.658-14.696,7.949-18.906,12.2l-3.206-3.206l-6.58,2.581
						c-9.529,3.741-16.62,10.161-20.509,18.572c-0.448,0.964-0.021,2.114,0.947,2.563l13.17,13.17
						c1.593,3.353,3.865,6.168,6.647,8.275c1.237,0.937,10.267,9.565,10.135,9.555c-1.166-0.086-2.302-0.238-3.402-0.451
						c-0.24-0.049-18.637-18.913-18.701-19.063c-0.326-0.776-1.139-1.273-2.015-1.171l-5.772-5.795
						c-0.038-0.053-0.083-0.098-0.125-0.147c-0.104-0.122-0.222-0.233-0.354-0.327c-0.224-0.158-0.481-0.272-0.768-0.326
						c-0.523-0.093-1.039,0.034-1.448,0.315c-0.306,0.211-0.551,0.511-0.694,0.869c-0.048,0.119-0.085,0.246-0.107,0.38
						c-0.259,1.419-0.417,2.834-0.482,4.231c-0.283,5.817,1.041,11.393,3.725,16.255c0.006,0.016,0.014,0.026,0.02,0.042
						c2.74,4.957,6.892,9.176,12.175,12.176l95.862,95.861c-3.343-6.049-4.594-13.185-3.263-20.53
						c0.097-0.526,0.396-0.966,0.806-1.248c0.405-0.279,0.923-0.407,1.447-0.313l0.256-4.648c-0.239-0.497-0.271-1.092-0.02-1.633
						c1.048-2.266,2.334-4.385,3.832-6.345l20.115,20.11c-2.599-3.421-3.795-8.294-3.174-13.503
						c0.696-5.823,4.855-20.457,28.428-30.412c11.934-5.045,23.086-5.032,34.412-4.561l5.729,2.187
						c0.031-1.049,0.896-1.875,1.938-1.875c0.018,0,0.038,0,0.057,0c9.705,0.282,19.918-0.074,28.711-7.675l5.545-4.791
						L273.627,217.203z"/>
					<path fill="#872427" d="M282.594,388.451l-2.575-2.58C280.766,386.86,281.622,387.732,282.594,388.451z"/>
				</g>
				<path fill="#FFFFFF" d="M185.954,275.071c-0.911,0-1.848-0.159-2.827-0.516c-3.234-1.158-5.201-3.85-5.394-7.376
					c-0.369-6.692,5.854-17.113,20.376-24.197c12.476-6.082,25.095-5.424,36.23-4.835c13.484,0.704,23.784,1.25,30.216-9.016
					c-8.195,4.438-16.928,4.654-25.295,4.399c-1.071-0.029-1.914-0.918-1.885-1.984c0.031-1.049,0.895-1.876,1.938-1.876
					c0.018,0,0.039,0,0.057,0c9.705,0.283,19.918-0.075,28.711-7.673l5.544-4.793l-2.449,6.9
					c-6.917,19.485-21.55,18.718-37.042,17.9c-10.662-0.559-22.75-1.196-34.324,4.449c-12.36,6.028-18.517,14.879-18.209,20.511
					c0.109,1.99,1.065,3.325,2.837,3.959c2.953,1.06,5.568-1.057,10.316-5.203c4.566-3.983,10.25-8.939,19.03-12.187
					c1.681-0.621,2.334-1.748,2.11-2.544c-0.226-0.788-1.274-1.111-2.674-0.835c-7.702,1.537-16.23,6.965-22.811,14.514
					c-0.704,0.803-1.926,0.892-2.732,0.188c-0.809-0.702-0.896-1.923-0.192-2.728c7.125-8.17,16.462-14.067,24.976-15.762
					c3.995-0.8,6.514,1.296,7.159,3.567c0.712,2.503-0.604,5.787-4.492,7.226c-8.108,2.997-13.496,7.694-17.82,11.473
					C193.406,272.041,189.931,275.071,185.954,275.071z M206.694,272.265c8.297-7.245,14.633-8.562,21.974-10.083
					c6.555-1.36,13.833-2.871,23.228-9.021c-5.068,8.444-11.539,12.548-16.521,14.535c-0.994,0.397-1.476,1.519-1.08,2.516
					c0.396,0.984,1.525,1.469,2.52,1.071c6.892-2.746,16.313-9.074,22.07-23.599l2.71-6.832l-5.729,4.612
					c-11.892,9.592-20.075,11.291-27.988,12.932c-7.544,1.566-14.671,3.044-23.733,10.959
					c-12.874,11.241-20.015,13.318-27.277,7.952c-3.233-2.385-4.844-7.183-4.208-12.52c0.612-5.156,4.389-18.146,26.092-27.31
					c11.189-4.729,21.872-4.716,32.737-4.256c1.098,0.055,1.974-0.785,2.018-1.853c0.046-1.065-0.783-1.963-1.854-2.013
					c-11.328-0.471-22.479-0.483-34.414,4.562c-23.57,9.957-27.732,24.588-28.428,30.412c-0.8,6.709,1.403,12.871,5.752,16.083
					c3.333,2.463,6.641,3.557,9.995,3.557C191.517,283.971,198.68,279.26,206.694,272.265z M186.767,318.157
					c17.035-0.67,34.281-8.54,45.011-20.546c6.142-6.872,9.245-14.294,8.744-20.906c-0.08-1.06-0.997-1.857-2.077-1.778
					c-1.069,0.08-1.867,1.009-1.785,2.072c0.419,5.552-2.342,11.957-7.772,18.041c-10.056,11.25-26.25,18.628-42.272,19.256
					c-1.071,0.036-1.902,0.938-1.862,2.003c0.042,1.04,0.9,1.856,1.936,1.856C186.715,318.157,186.739,318.157,186.767,318.157z
					 M179.924,290.548c0.235-1.045-0.416-2.077-1.458-2.317c-0.734-0.168-1.464-0.368-2.175-0.586
					c-5.551-1.727-9.829-6.209-11.737-12.288c-2.647-8.432-0.316-18.479,6.23-26.877l4.34-5.566l-6.58,2.581
					c-9.529,3.741-16.62,10.161-20.509,18.572c-0.448,0.964-0.021,2.114,0.947,2.563c0.975,0.446,2.125,0.021,2.571-0.947
					c2.575-5.563,6.753-10.165,12.251-13.54c-4.23,7.98-5.352,16.719-2.949,24.372c2.294,7.303,7.497,12.707,14.278,14.825
					c0.805,0.25,1.636,0.47,2.47,0.661c0.144,0.033,0.288,0.05,0.433,0.05C178.92,292.05,179.715,291.44,179.924,290.548z
					 M199.447,307.581c16.236-5.042,30.357-17.271,31.478-27.262c0.429-3.831-1.176-7-4.518-8.931
					c-6.483-3.742-12.572,1.175-19.021,6.381c-6.063,4.894-12.938,10.437-21.76,11.038c-1.067,0.075-1.875,0.998-1.801,2.063
					c0.071,1.063,1.002,1.881,2.063,1.795c10.043-0.687,17.746-6.897,23.937-11.893c6.685-5.398,10.659-8.34,14.645-6.042
					c2.012,1.165,2.864,2.854,2.604,5.158c-0.829,7.38-12.851,19.054-28.776,24.001c-1.021,0.314-1.592,1.397-1.272,2.418
					c0.256,0.827,1.023,1.359,1.846,1.359C199.062,307.67,199.256,307.646,199.447,307.581z M191.644,309.423
					c1.053-0.168,1.771-1.165,1.598-2.217c-0.171-1.057-1.168-1.776-2.222-1.601c-8.791,1.431-17.166,0.504-24.884-2.759
					c-12.37-5.222-19.11-17.377-16.776-30.251c0.189-1.052-0.51-2.055-1.563-2.247c-1.049-0.188-2.062,0.508-2.25,1.563
					c-2.664,14.688,5.002,28.554,19.076,34.498c5.859,2.477,12.052,3.717,18.498,3.717
					C185.914,310.127,188.759,309.896,191.644,309.423z M189.968,300.729c17.43-3.409,27.078-13.676,31.72-18.611
					c0.729-0.781,0.69-2.001-0.092-2.733c-0.781-0.729-2.005-0.691-2.736,0.086c-4.362,4.641-13.436,14.293-29.634,17.464
					c-5.498,1.077-10.538,1.069-14.979-0.022c-1.046-0.262-2.091,0.375-2.346,1.409c-0.258,1.035,0.377,2.084,1.415,2.34
					c2.546,0.622,5.249,0.938,8.087,0.938C184.138,301.6,186.999,301.307,189.968,300.729z M168.256,296.85
					c0.554-0.911,0.261-2.103-0.655-2.649c-6.826-4.116-9.996-10.978-10.637-15.604c-0.146-1.056-1.123-1.792-2.183-1.649
					c-1.06,0.146-1.803,1.12-1.654,2.178c0.792,5.731,4.483,13.569,12.469,18.378c0.315,0.194,0.66,0.283,1.002,0.283
					C167.253,297.785,167.894,297.451,168.256,296.85z"/>
			</g>
		</g>
	</g>
</g>
</svg>
