<?xml version="1.0" standalone="no"?><!DOCTYPE svg PUBLIC "-//W3C//DTD SVG 1.1//EN" "http://www.w3.org/Graphics/SVG/1.1/DTD/svg11.dtd"><svg t="1783958263727" class="icon" viewBox="0 0 1024 1024" version="1.1" xmlns="http://www.w3.org/2000/svg" p-id="6159" xmlns:xlink="http://www.w3.org/1999/xlink" width="200" height="200"><path d="M1024 512c0 282.767-229.233 512-512 512S0 794.767 0 512 229.233 0 512 0s512 229.233 512 512z" fill="#131519" p-id="6160"></path><path d="M481.28 530.652c3 0 5.484 2.34 5.484 5.264v31.964c0 2.928-2.484 5.34-5.484 5.34h-8.776v37.232h8.776c3 0 5.484 2.34 5.484 5.264v31.964c0 2.924-2.484 5.34-5.484 5.34h-8.776v77.676c0 2.928-2.488 5.268-5.488 5.268h-29.614a5.565 5.565 0 0 1-3.293-1.024H316.124a22.32 22.32 0 0 1-14.484-5.34l-55.588-47.544a3.144 3.144 0 0 1-0.292-4.532 3.364 3.364 0 0 1 2.488-1.1H320c3 0 5.484 2.34 5.484 5.34v10.608h106.424V653.02H248.684a5.412 5.412 0 0 1-5.484-5.34v-31.964c0-2.924 2.488-5.264 5.484-5.264h183.224v-37.304H248.684a5.412 5.412 0 0 1-5.484-5.268v-31.964c0-2.924 2.488-5.264 5.484-5.264H481.28z m244.664-242.688c2.996 0 5.484 2.412 5.484 5.34v30.864h159.088c2.996 0 5.484 2.416 5.484 5.34V729.6c0 2.924-2.488 5.34-5.484 5.34h-11.704l-1.316 0.292c-0.44 0-0.88 0-1.244-0.292h-117.98a22.32 22.32 0 0 1-14.484-5.34L688.2 682.056a3.144 3.144 0 0 1-0.292-4.532 3.364 3.364 0 0 1 2.488-1.1h71.752c3 0 5.488 2.34 5.488 5.34v10.608h84.48V366.74h-38.4v282.036c0 2.928-2.488 5.268-5.488 5.268h-32.912a5.412 5.412 0 0 1-5.488-5.268v-282.03h-38.4V648.78c0 2.928-2.488 5.268-5.484 5.268h-32.916a5.412 5.412 0 0 1-5.484-5.268V293.304c0-2.928 2.484-5.268 5.484-5.268h32.916v-0.072z m-526.628 81.92c2.996 0 5.484 2.412 5.484 5.34V729.6c0 2.924-2.488 5.34-5.484 5.34H166.4a5.417 5.417 0 0 1-5.484-5.34V412.524h-27.438a5.412 5.412 0 0 1-5.478-5.33v-31.965c0-2.928 2.488-5.268 5.484-5.268h65.838v-0.072z m445.44-81.92c2.996 0 5.484 2.412 5.484 5.34v30.864h9.876c2.996 0 5.484 2.416 5.484 5.34V361.4c0 2.924-2.488 5.34-5.484 5.34h-9.876v244.736h9.876c2.996 0 5.484 2.412 5.484 5.336v31.964c0 2.928-2.488 5.268-5.484 5.268h-9.876V729.6c0 2.924-2.488 5.34-5.484 5.34H611.84a5.417 5.417 0 0 1-5.484-5.34v-75.556h-77.9a5.412 5.412 0 0 1-5.484-5.268v-31.964c0-2.924 2.488-5.336 5.484-5.336h77.9V366.74h-39.5v203.264c0 2.924-2.484 5.336-5.484 5.336h-32.916a5.412 5.412 0 0 1-5.484-5.336V314.516c0-2.928 2.488-5.34 5.484-5.34h32.916c3 0 5.484 2.412 5.484 5.34v9.58h39.5v-30.792c0-2.928 2.484-5.34 5.484-5.34h32.916z m-160.184 2.192c3 0 5.484 2.344 5.484 5.268V487.06c0 2.924-2.484 5.264-5.484 5.264H248.678a5.417 5.417 0 0 1-5.483-5.34V295.496c0-2.924 2.488-5.264 5.483-5.264h235.889v-0.076z m-38.4 121.272H287.078v38.328h159.089v-38.328z m0-78.7H287.078v36.132h159.089v-36.132zM199.316 290.15c2.996 0 5.484 2.345 5.484 5.269v31.964c0 2.924-2.488 5.34-5.484 5.34h-65.838a5.412 5.412 0 0 1-5.478-5.335v-31.964c0-2.924 2.488-5.268 5.484-5.268h65.838z" fill="#FFFFFF" p-id="6161"></path></svg>